<svg xmlns="http://www.w3.org/2000/svg" width="119" height="119" viewBox="0 0 119 119"><g transform="translate(-808.5 -2913.5)"><rect width="104" height="104" rx="50" transform="translate(816 2921)" fill="#000"/><path d="M50-7.5h4A57.565,57.565,0,0,1,111.5,50v4A57.565,57.565,0,0,1,54,111.5H50A57.565,57.565,0,0,1-7.5,54V50A57.565,57.565,0,0,1,50-7.5Zm4,104A42.548,42.548,0,0,0,96.5,54V50A42.548,42.548,0,0,0,54,7.5H50A42.548,42.548,0,0,0,7.5,50v4A42.548,42.548,0,0,0,50,96.5Z" transform="translate(816 2921)" fill="#fff"/><path d="M50,0h4a50,50,0,0,1,50,50v4a50,50,0,0,1-50,50H50A50,50,0,0,1,0,54V50A50,50,0,0,1,50,0Z" transform="translate(816 2921)" fill="#fff"/><path d="M50-1h4a50.958,50.958,0,0,1,51,51v4a50.958,50.958,0,0,1-51,51H50A50.958,50.958,0,0,1-1,54V50A50.958,50.958,0,0,1,50-1Zm4,104a48.958,48.958,0,0,0,49-49V50A48.958,48.958,0,0,0,54,1H50A48.958,48.958,0,0,0,1,50v4a48.958,48.958,0,0,0,49,49Z" transform="translate(816 2921)" fill="#000"/><path d="M43.808,0h3.5A43.808,43.808,0,0,1,91.122,43.808v3.5A43.808,43.808,0,0,1,47.313,91.122h-3.5A43.808,43.808,0,0,1,0,47.313v-3.5A43.808,43.808,0,0,1,43.808,0Z" transform="translate(822 2927.439)" fill="#000"/></g></svg>